<svg width="326" height="123" viewBox="0 0 326 123" fill="none" xmlns="http://www.w3.org/2000/svg">
<path d="M2.0998 56.7V0.700011H18.9698L23.5898 21.91L24.4998 47.46H26.3198L27.1598 21.91L31.8498 0.700011H48.6498V56.7H38.1498V39.48L40.1798 9.94001H38.2898L35.3498 40.18L31.0098 56.7H19.7398L15.4698 40.18L12.4598 9.94001H10.6398L12.5998 39.48V56.7H2.0998ZM68.818 57.4C63.6847 57.4 59.963 56.315 57.653 54.145C55.3663 51.975 54.1647 48.37 54.048 43.33C54.0013 41.0433 53.9663 38.6633 53.943 36.19C53.9197 33.7167 53.908 31.2083 53.908 28.665C53.908 26.1217 53.9197 23.6133 53.943 21.14C53.9663 18.6667 54.0013 16.2867 54.048 14C54.1647 8.98334 55.3663 5.40168 57.653 3.25501C59.963 1.08501 63.6847 7.86781e-06 68.818 7.86781e-06C73.9747 7.86781e-06 77.673 1.08501 79.913 3.25501C82.153 5.40168 83.3547 8.98334 83.518 14C83.6113 16.3333 83.6813 18.7367 83.728 21.21C83.7747 23.6833 83.798 26.1917 83.798 28.735C83.798 31.255 83.7747 33.7517 83.728 36.225C83.6813 38.675 83.6113 41.0433 83.518 43.33C83.3547 48.37 82.153 51.975 79.913 54.145C77.673 56.315 73.9747 57.4 68.818 57.4ZM68.818 48.86C70.1947 48.86 71.233 48.5567 71.933 47.95C72.633 47.32 72.9947 46.4333 73.018 45.29C73.1347 42.91 73.2163 40.2967 73.263 37.45C73.3097 34.6033 73.333 31.675 73.333 28.665C73.333 25.655 73.3097 22.7267 73.263 19.88C73.2163 17.0333 73.1347 14.42 73.018 12.04C72.9947 10.92 72.6213 10.0567 71.898 9.45001C71.1747 8.84334 70.148 8.54001 68.818 8.54001C67.488 8.54001 66.4497 8.84334 65.703 9.45001C64.9797 10.0567 64.5947 10.92 64.548 12.04C64.4547 14.42 64.373 17.0333 64.303 19.88C64.2563 22.7267 64.233 25.655 64.233 28.665C64.233 31.675 64.2563 34.6033 64.303 37.45C64.373 40.2967 64.4547 42.91 64.548 45.29C64.5947 46.4333 64.9797 47.32 65.703 47.95C66.4497 48.5567 67.488 48.86 68.818 48.86ZM88.9846 56.7V0.700011H103.195C108.445 0.700011 112.236 1.82001 114.57 4.06001C116.926 6.27668 118.151 9.94001 118.245 15.05C118.315 18.2933 118.361 21.3733 118.385 24.29C118.408 27.2067 118.408 30.1233 118.385 33.04C118.361 35.9567 118.315 39.0367 118.245 42.28C118.151 47.4133 116.926 51.1 114.57 53.34C112.236 55.58 108.445 56.7 103.195 56.7H88.9846ZM99.4846 47.46H103.195C104.665 47.46 105.785 47.1217 106.555 46.445C107.325 45.7683 107.721 44.8 107.745 43.54C107.815 41.0433 107.861 38.5583 107.885 36.085C107.931 33.6117 107.955 31.1383 107.955 28.665C107.955 26.1917 107.931 23.7183 107.885 21.245C107.861 18.7483 107.815 16.2633 107.745 13.79C107.721 12.5533 107.325 11.6083 106.555 10.955C105.785 10.2783 104.665 9.94001 103.195 9.94001H99.4846V47.46ZM123.643 56.7V0.700011H147.863V9.94001H134.143V23.59H147.163V32.83H134.143V47.46H147.863V56.7H123.643ZM152.217 56.7V0.700011H165.727C170.954 0.700011 174.722 1.76168 177.032 3.88501C179.365 5.98501 180.614 9.47334 180.777 14.35C180.824 15.6567 180.847 16.8 180.847 17.78C180.87 18.76 180.87 19.74 180.847 20.72C180.847 21.7 180.824 22.8433 180.777 24.15C180.684 27.1833 180.17 29.6683 179.237 31.605C178.327 33.5417 176.904 35.0233 174.967 36.05L181.547 56.7H170.417L165.097 37.8H162.717V56.7H152.217ZM162.717 28.56H165.727C167.197 28.56 168.305 28.2217 169.052 27.545C169.799 26.8683 170.207 25.9233 170.277 24.71C170.347 23.5667 170.394 22.3767 170.417 21.14C170.44 19.88 170.44 18.6317 170.417 17.395C170.394 16.135 170.347 14.9333 170.277 13.79C170.207 12.5533 169.799 11.6083 169.052 10.955C168.305 10.2783 167.197 9.94001 165.727 9.94001H162.717V28.56ZM185.576 56.7V0.700011H200.766L204.966 18.55L208.816 47.46H210.636L208.676 24.71L207.836 0.700011H217.986V56.7H202.026L197.826 38.36L194.956 9.87001H192.996L194.816 35.21L195.726 56.7H185.576ZM-0.000195263 121.7L7.76981 65.7H24.2898L32.0598 121.7H21.2798L20.0898 110.01H11.9698L10.7798 121.7H-0.000195263ZM12.9498 100.77H19.1098L17.8498 88.38L17.0098 74.94H15.0498L14.2098 88.38L12.9498 100.77ZM35.5275 121.7V65.7H49.0375C54.2642 65.7 58.0325 66.7617 60.3425 68.885C62.6759 70.985 63.9242 74.4733 64.0875 79.35C64.1342 80.6567 64.1575 81.8 64.1575 82.78C64.1809 83.76 64.1809 84.74 64.1575 85.72C64.1575 86.7 64.1342 87.8433 64.0875 89.15C63.9942 92.1833 63.4809 94.6683 62.5475 96.605C61.6375 98.5417 60.2142 100.023 58.2775 101.05L64.8575 121.7H53.7275L48.4075 102.8H46.0275V121.7H35.5275ZM46.0275 93.56H49.0375C50.5075 93.56 51.6159 93.2217 52.3625 92.545C53.1092 91.8683 53.5175 90.9233 53.5875 89.71C53.6575 88.5667 53.7042 87.3767 53.7275 86.14C53.7509 84.88 53.7509 83.6317 53.7275 82.395C53.7042 81.135 53.6575 79.9333 53.5875 78.79C53.5175 77.5533 53.1092 76.6083 52.3625 75.955C51.6159 75.2783 50.5075 74.94 49.0375 74.94H46.0275V93.56ZM75.5019 121.7V74.94H66.5069V65.7H94.9969V74.94H86.0019V121.7H75.5019ZM127.54 122.4C124.017 122.4 121.194 121.933 119.07 121C116.947 120.043 115.395 118.538 114.415 116.485C113.435 114.408 112.887 111.69 112.77 108.33C112.7 106.37 112.642 104.142 112.595 101.645C112.572 99.125 112.56 96.535 112.56 93.875C112.56 91.215 112.572 88.6483 112.595 86.175C112.642 83.7017 112.7 81.52 112.77 79.63C112.91 76.0833 113.482 73.2367 114.485 71.09C115.512 68.9433 117.075 67.3917 119.175 66.435C121.299 65.4783 124.087 65 127.54 65C132.44 65 136.01 66.085 138.25 68.255C140.514 70.4017 141.797 73.9833 142.1 79C142.17 80.0733 142.205 81.3567 142.205 82.85C142.205 84.32 142.17 85.6033 142.1 86.7H131.6C131.67 85.3933 131.705 83.7833 131.705 81.87C131.705 79.9333 131.67 78.3233 131.6 77.04C131.53 75.92 131.145 75.0567 130.445 74.45C129.745 73.8433 128.777 73.54 127.54 73.54C126.187 73.54 125.149 73.8433 124.425 74.45C123.725 75.0567 123.34 75.92 123.27 77.04C123.13 79.49 123.025 82.1383 122.955 84.985C122.885 87.8083 122.85 90.7017 122.85 93.665C122.85 96.6283 122.885 99.5333 122.955 102.38C123.025 105.203 123.13 107.84 123.27 110.29C123.34 111.433 123.725 112.32 124.425 112.95C125.149 113.557 126.187 113.86 127.54 113.86C128.87 113.86 129.932 113.557 130.725 112.95C131.542 112.32 131.997 111.433 132.09 110.29C132.137 109.753 132.16 109.053 132.16 108.19C132.184 107.303 132.184 106.428 132.16 105.565C132.16 104.678 132.137 103.967 132.09 103.43H128.24V94.33H142.31C142.427 96.4533 142.474 98.7867 142.45 101.33C142.427 103.85 142.357 106.183 142.24 108.33C142.007 113.37 140.747 116.975 138.46 119.145C136.197 121.315 132.557 122.4 127.54 122.4ZM144.99 121.7L152.76 65.7H169.28L177.05 121.7H166.27L165.08 110.01H156.96L155.77 121.7H144.99ZM157.94 100.77H164.1L162.84 88.38L162 74.94H160.04L159.2 88.38L157.94 100.77ZM180.518 121.7V65.7H191.018V112.46H204.808V121.7H180.518ZM208.682 121.7V65.7H219.182V112.46H232.972V121.7H208.682ZM236.846 121.7V65.7H261.066V74.94H247.346V88.59H260.366V97.83H247.346V112.46H261.066V121.7H236.846ZM265.42 121.7V65.7H278.93C284.157 65.7 287.925 66.7617 290.235 68.885C292.568 70.985 293.817 74.4733 293.98 79.35C294.027 80.6567 294.05 81.8 294.05 82.78C294.073 83.76 294.073 84.74 294.05 85.72C294.05 86.7 294.027 87.8433 293.98 89.15C293.887 92.1833 293.373 94.6683 292.44 96.605C291.53 98.5417 290.107 100.023 288.17 101.05L294.75 121.7H283.62L278.3 102.8H275.92V121.7H265.42ZM275.92 93.56H278.93C280.4 93.56 281.508 93.2217 282.255 92.545C283.002 91.8683 283.41 90.9233 283.48 89.71C283.55 88.5667 283.597 87.3767 283.62 86.14C283.643 84.88 283.643 83.6317 283.62 82.395C283.597 81.135 283.55 79.9333 283.48 78.79C283.41 77.5533 283.002 76.6083 282.255 75.955C281.508 75.2783 280.4 74.94 278.93 74.94H275.92V93.56ZM304.202 121.7V108.4V108.33L293.702 65.7H304.412L307.422 79.28L308.472 95.73H310.432L311.482 79.28L314.492 65.7H325.202L314.702 108.33V108.4V121.7H304.202Z" fill="#151515"/>
</svg>
